# xmcd
#
# Track frame offsets: 
#        150
#        10205
#        27917
#        45859
#        64631
#        80507
#        82572
#        100572
#        126219
#        142835
#        161280
#        180522
#        195925
#        214618
#        228415
#        249365
#        255591
#
# Disc length: 3600 seconds
#
# Revision: 0
# Processed by: cddbd v1.5.2PL0 Copyright (c) Steve Scherf et al.
# Submitted via: ExactAudioCopy v1.0b1
#
DISCID=b90e0e11
DTITLE=Mike Fiction - Dreckiges Deutsch
DYEAR=2007
DGENRE=Hip-Hop
TTITLE0=Intro
TTITLE1=Wer bist du
TTITLE2=Dreckiges Deutsch
TTITLE3=Killer Ballade
TTITLE4=Mike Ficker
TTITLE5=Opfer Skit
TTITLE6=Ma-Fucker feat. Tatjana
TTITLE7=Alles für dich feat. Tatjana and Alexis
TTITLE8=Mein Spielzeug
TTITLE9=De ja vu feat. Chefkoch
TTITLE10=Halt die fresse feat. Morlockk Dilemma and V-Mann
TTITLE11=Groopie feat. Alexis
TTITLE12=Es ist mein Ernst
TTITLE13=Ich laufe allein
TTITLE14=Anatomie feat. Bektas and Chefkoch
TTITLE15=Immer noch Opfer Skit
TTITLE16=Ich buddel ein Loch
EXTD=
EXTT0=
EXTT1=
EXTT2=
EXTT3=
EXTT4=
EXTT5=
EXTT6=
EXTT7=
EXTT8=
EXTT9=
EXTT10=
EXTT11=
EXTT12=
EXTT13=
EXTT14=
EXTT15=
EXTT16=
PLAYORDER=
